HIERARCHY
ROOT Hips
{
  OFFSET 11.358 56.5898 -174.235
  CHANNELS 6 Xposition Yposition Zposition Zrotation Xrotation Yrotation
  JOINT RightUpLeg
  {
    OFFSET -8.9458 -8.66707 0.101652
    CHANNELS 3 Zrotation Xrotation Yrotation
    JOINT RightLeg
    {
      OFFSET 0 -44.4227 1.3727
      CHANNELS 3 Zrotation Xrotation Yrotation
      JOINT RightFoot
      {
        OFFSET 0.253549 -42.0924 -1.46059
        CHANNELS 3 Zrotation Xrotation Yrotation
        JOINT RightToes
        {
          OFFSET 0.04 -4.41509 8.4991
          CHANNELS 3 Zrotation Xrotation Yrotation
          End Site
          {
            OFFSET -0.08 -0.137448 9.77979
          }
        }
      }
    }
  }
  JOINT LeftUpLeg
  {
    OFFSET 8.9458 -8.66707 0.101652
    CHANNELS 3 Zrotation Xrotation Yrotation
    JOINT LeftLeg
    {
      OFFSET 0 -44.4227 1.3727
      CHANNELS 3 Zrotation Xrotation Yrotation
      JOINT LeftFoot
      {
        OFFSET -1.67456 -37.7623 -4.877
        CHANNELS 3 Zrotation Xrotation Yrotation
        JOINT LeftToes
        {
          OFFSET -2.01565 -4.28318 -2.08687
          CHANNELS 3 Zrotation Xrotation Yrotation
          End Site
          {
            OFFSET 0.08 -0.047448 9.77979
          }
        }
      }
    }
  }
  JOINT Spine
  {
    OFFSET 0 11.8905 0
    CHANNELS 3 Zrotation Xrotation Yrotation
    JOINT Spine1
    {
      OFFSET 0 25.6574 0.127663
      CHANNELS 3 Zrotation Xrotation Yrotation
      JOINT HEad
      {
        OFFSET 0 8.73416 0.011341
        CHANNELS 3 Zrotation Xrotation Yrotation
        End Site
        {
          OFFSET -0.29 12.7742 2.51395
        }
      }
      JOINT LeftShoulder1
      {
        OFFSET 8.99 -0.362252 -0.22
        CHANNELS 3 Zrotation Xrotation Yrotation
        JOINT LeftArm
        {
          OFFSET 10.2827 -0.00338 0.322123
          CHANNELS 3 Zrotation Xrotation Yrotation
          JOINT LeftForeArm
          {
            OFFSET 32.7669 0.099144 -1.42434
            CHANNELS 3 Zrotation Xrotation Yrotation
            JOINT LeftHand
            {
              OFFSET 27.5643 0.085362 1.02216
              CHANNELS 3 Zrotation Xrotation Yrotation
              End Site
              {
                OFFSET 16.7443 -0.6 1.50291
              }
            }
          }
        }
      }
      JOINT RightShoulder
      {
        OFFSET -8.99 -0.362252 -0.22
        CHANNELS 3 Zrotation Xrotation Yrotation
        JOINT RightArm
        {
          OFFSET -10.2827 -0.00338 0.322123
          CHANNELS 3 Zrotation Xrotation Yrotation
          JOINT RightForeArm
          {
            OFFSET -32.8971 0.099144 -1.42434
            CHANNELS 3 Zrotation Xrotation Yrotation
            JOINT RightHand
            {
              OFFSET -27.4921 0.085362 1.02216
              CHANNELS 3 Zrotation Xrotation Yrotation
              End Site
              {
                OFFSET -16.6312 -0.6 1.50291
              }
            }
          }
        }
      }
    }
  }
}
MOTION
Frames:	15
Frame Time:	0.0166667
44.878 92.0682 -122.467 0.448584 0.728136 -17.3665 -7.56594 -7.35913 -11.5835 -15.5294 43.317 10.9796 -31.6706 1.50348 -0.793052 0.0462048 0.000533403 0.662642 -1.8167 -36.9342 13.9048 35.5095 26.5582 -42.1769 -18.5651 -3.02809 -0.881966 -1.31003e-009 1.56027e-007 -4.82417e-009 -2.40265 17.4787 4.29651 0.00244984 0.01022 -0.00186015 -16.4029 7.4041 26.3466 1.59028e-015 -3.18055e-015 -3.18055e-015 179.027 -47.2381 -164.129 -98.471 54.2529 -36.076 6.02801 19.7552 -0.335145 8.90159 5.71032 8.82388 103.833 -19.6685 91.714 60.2223 55.5975 59.6801 -4.20345 20.517 0.0658623 
43.7656 90.9038 -123.3 0.506483 0.419876 -17.3923 -9.46061 -9.86204 -11.4149 -15.4538 50.2806 9.11152 -6.32071 0.955597 0.722868 0.0462048 0.000533403 0.662642 1.01455 -37.8261 13.688 33.5146 29.1187 -41.3042 -18.8256 -2.48365 -0.995125 -1.31003e-009 1.56027e-007 -4.82416e-009 -2.5043 18.2431 4.64578 0.00244984 0.01022 -0.00186015 -16.1452 6.64783 25.6937 8.82781e-032 3.18055e-015 -1.59028e-015 178.534 -46.3345 -164.041 -100.31 54.2779 -35.068 6.17127 19.6272 -0.263658 8.60373 5.33979 8.32615 103.917 -20.4283 91.86 61.2387 55.9538 59.7462 -4.32975 20.5943 -0.0233424 
42.2486 89.2337 -124.536 0.536322 0.0314757 -17.4887 -11.8259 -11.296 -10.9756 -14.9264 56.4885 6.75672 18.9931 2.29279 1.10882 0.0462048 0.000533403 0.662642 4.43694 -39.4221 12.9039 31.4312 33.0886 -40.3862 -19.3636 -2.38278 -1.01139 -1.31003e-009 1.56027e-007 -4.82416e-009 -2.67195 18.9004 5.00172 0.00244984 0.01022 -0.00186015 -15.7297 5.95405 25.0976 -0 0 3.18055e-015 178.009 -45.6329 -164.085 -102.07 54.1774 -34.0433 6.19 19.6068 -0.0275863 8.20918 4.91173 7.60943 104.047 -21.0543 91.8181 62.312 56.326 59.8109 -4.25593 20.6954 -0.117287 
40.3082 86.6255 -126.654 0.524004 -0.438539 -17.2319 -14.4963 -12.4014 -10.7159 -14.135 63.8106 3.0535 44.3307 3.30786 0.566249 0.0462048 0.000533403 0.662642 8.29834 -42.3736 11.5861 29.8372 38.2992 -39.985 -20.6623 -2.49101 -1.18349 -1.31003e-009 1.56027e-007 -4.82417e-009 -2.78875 19.3892 5.3776 0.0579766 -0.0449525 -0.00490567 -15.1547 5.33636 24.5869 -7.95139e-016 3.18055e-015 -0 177.433 -45.1914 -164.351 -103.543 53.9351 -33.158 6.21563 19.6948 0.208434 7.82871 4.50731 6.86925 104.151 -21.6192 91.6828 63.3445 56.6862 59.8381 -4.44374 20.6684 -0.27186 
37.9862 83.7159 -129.614 0.46966 -0.977356 -16.3234 -15.0796 -17.8834 -12.4189 -17.1376 77.6408 1.5363 17.8612 -1.83228 0.0999342 0.0462048 0.000533403 0.662642 12.4338 -45.5356 9.91592 27.2174 42.6894 -38.5556 -22.6561 -1.67735 -1.7261 -1.31003e-009 1.56027e-007 -4.82416e-009 -2.77192 19.2535 5.54545 0.210228 -0.196231 -0.0127077 -14.4178 5.14576 24.5329 -0 0 1.59028e-015 176.537 -45.4343 -165.274 -104.654 53.6279 -32.4795 6.0879 19.8675 0.460374 6.7028 4.41441 6.09216 104.991 -21.1371 92.5125 63.7256 55.1953 60.295 -8.03995 20.0346 1.53499 
35.2042 79.6853 -133.828 0.395966 -1.55506 -14.9656 -16.8481 -22.3965 -14.7122 40.6482 87.9711 -60.3056 -9.28394 -3.40432 -0.344878 0.0462048 0.000533403 0.662642 16.7448 -49.9336 7.5517 24.6149 47.1372 -36.7149 -25.8738 -0.527793 -2.42485 -1.31003e-009 1.56027e-007 -4.82415e-009 -2.63606 18.5784 5.52355 0.437719 -0.422251 -0.0228668 -13.6391 5.36727 24.9204 1.19271e-015 3.18055e-015 -0 175.017 -46.3662 -167.164 -105.237 53.2811 -32.2653 5.87663 20.4219 0.915812 6.31466 4.51004 5.78281 104.947 -20.9673 92.5935 64.1699 54.6005 60.2057 -3.43614 20.7525 -1.6853 
32.35 74.7766 -138.732 0.322284 -2.13724 -13.3282 -19.2574 -25.3348 -16.9293 128.311 79.7297 -150.667 -36.7106 -5.19403 0.657771 0.0462048 0.000533403 0.662642 21.0938 -54.635 4.48392 20.7929 50.402 -32.8921 -30.1498 1.44507 -3.11005 -1.31003e-009 1.56027e-007 -4.82416e-009 -2.38953 17.4341 5.34573 0.718977 -0.701633 -0.0329446 -12.885 5.96465 25.6896 -3.97569e-016 0 -0 172.804 -47.8117 -170.048 -105.36 52.9284 -32.4323 5.6393 20.6485 0.995167 6.19636 4.92926 5.95684 104.501 -21.061 92.2927 64.343 54.3296 60.2289 -6.50077 20.2712 0.0601984 
29.3313 71.0246 -143.666 0.234339 -2.6779 -11.5763 -26.0765 -29.0453 -17.7634 142.925 68.2926 -166.741 -8.2333 -9.05405 2.54662 0.0462048 0.000533403 0.662642 24.3081 -56.7141 0.132277 15.0899 48.9622 -25.5305 -35.2629 4.76836 -3.15484 -1.31003e-009 1.56027e-007 -4.82417e-009 -2.00583 15.8863 5.04701 1.03254 -1.01299 -0.0409448 -12.2466 6.89473 26.7828 3.97569e-016 0 -0 169.788 -49.5677 -173.936 -105.13 52.6063 -32.9021 5.42741 21.0316 1.05971 6.16183 5.61736 6.59239 103.764 -21.3664 91.632 64.2865 54.4377 60.242 -3.88274 20.5661 -1.74347 
26.2736 67.2148 -149.12 0.120778 -3.12649 -9.84873 -31.5264 -31.3996 -18.648 146.677 58.702 -172.063 -0.857727 -13.1638 3.2981 0.0462048 0.000533403 0.662642 27.2481 -58.5422 -4.01319 10.5164 44.9213 -15.9215 -40.8565 9.2704 -2.13721 -1.31003e-009 1.56027e-007 -4.82417e-009 -1.53828 14.3507 4.96451 1.35695 -1.33304 -0.0456775 -11.7204 7.84651 27.7771 2.20695e-032 -1.59028e-015 7.95139e-016 166.245 -51.1541 -178.348 -104.698 52.3619 -33.6749 5.32362 21.3304 0.972185 6.15179 6.10745 7.33657 102.694 -21.8565 90.7352 63.9713 54.6044 60.4632 -5.61765 20.1565 -0.467773 
23.2688 63.8461 -154.511 -0.00192641 -3.46352 -8.25145 -36.2197 -33.1152 -18.6623 147.412 49.6518 -171.941 5.72338 -17.0205 4.63027 0.0462048 0.000533403 0.662642 28.8434 -61.054 -8.19183 7.02313 43.8908 -8.01887 -34.4208 12.4083 -1.52287 -1.31003e-009 1.56027e-007 -4.82417e-009 -1.0172 12.8641 5.03868 1.67076 -1.6429 -0.045511 -11.3165 8.78474 28.6646 4.96962e-016 -3.18055e-015 -7.95139e-016 162.359 -52.457 177.002 -104.215 52.211 -34.496 5.22111 21.2419 0.923572 6.11592 6.59072 8.13719 101.414 -22.4183 89.8359 63.5259 54.8404 60.717 -4.06661 20.1541 -1.46387 
20.5103 61.0408 -159.54 -0.126391 -3.68638 -6.91798 -39.4745 -34.3108 -17.9098 150.338 44.8935 -173.706 4.98272 -20.515 6.02695 0.0462048 0.000533403 0.662642 29.864 -62.7863 -11.9892 4.1475 41.3666 -1.65075 -27.2795 15.887 -1.02009 -1.31002e-009 1.56027e-007 -4.82417e-009 -0.491089 11.4752 5.23611 1.95241 -1.92081 -0.0432872 -11.0327 9.68766 29.4458 -4.22417e-016 -7.95139e-016 3.97569e-016 158.34 -53.4373 172.413 -103.804 52.1738 -35.2263 5.23342 21.0661 0.692798 6.05647 7.09665 8.95785 99.9642 -23.0368 88.9807 63.012 55.0582 61.0367 -5.20951 19.7054 -0.515434 
17.9344 58.6258 -164.11 -0.196301 -3.84251 -5.96451 -41.0885 -34.7448 -15.6013 151.361 42.5007 -171.772 4.13095 -23.4643 7.32288 0.0462048 0.000533403 0.662642 32.2974 -63.9797 -13.5446 2.58384 40.5482 6.87556 -41.0541 22.8084 2.49112 -1.31003e-009 1.56027e-007 -4.82416e-009 -0.105352 10.2688 5.51158 2.18027 -2.14544 -0.0413653 -10.8369 10.5305 30.1155 1.2424e-016 0 9.93923e-017 154.32 -54.0994 168.145 -103.745 52.301 -35.7135 5.28129 20.4737 0.549053 6.04544 7.74942 9.70559 98.3149 -23.6838 88.1488 62.5683 55.3685 61.3954 -4.30535 19.3669 -1.13206 
15.6981 57.0869 -167.879 -0.184582 -3.94101 -5.554 -40.9216 -35.1145 -12.7729 150.583 42.0156 -167.304 2.29445 -25.4454 8.2118 0.0462048 0.000533403 0.662642 30.1198 -68.0162 -16.1376 0.626243 47.7042 7.42166 -32.0916 22.9453 1.29956 -1.31003e-009 1.56027e-007 -4.82417e-009 0.0686001 9.26613 5.83197 2.33277 -2.29553 -0.0402925 -10.7164 11.2998 30.6764 -2.30039e-017 -7.95139e-016 5.59082e-017 150.46 -54.5012 164.374 -104.029 52.5854 -35.8774 5.36062 20.085 0.375627 6.07692 8.41883 10.2954 96.5333 -24.3096 87.1964 62.1671 55.719 61.7943 -5.35611 19.0408 -0.454961 
14.0003 56.6548 -170.588 -0.113168 -3.98049 -5.88865 -40.5681 -34.3124 -8.62636 149.842 46.4416 -164.248 16.9996 -27.1937 8.65822 0.0462048 0.000533403 0.662642 27.0817 -70.1645 -17.6818 0.893126 51.9485 6.46548 -22.6302 23.2207 -0.256161 -1.31003e-009 1.56027e-007 -4.82416e-009 0.00914264 8.4882 6.19181 2.38841 -2.34979 -0.0393102 -10.6622 11.9863 31.133 -3.63403e-016 -3.97569e-016 -3.72721e-017 146.887 -54.7191 161.202 -104.635 53.0118 -35.7319 5.46359 19.5432 0.0838139 6.15662 9.07919 10.7099 94.699 -24.8678 86.106 61.7786 56.1235 62.2314 -5.19971 18.8376 -0.559316 
12.5751 56.5277 -172.681 -0.0125446 -3.9928 -6.90753 -39.3006 -32.9597 -4.95109 146.09 52.9985 -160.34 14.3483 -26.8597 9.1325 0.0462048 0.000533403 0.662642 24.827 -71.5536 -17.2186 3.41789 56.1415 2.78802 -13.3049 22.9031 -1.91067 -1.31002e-009 1.56027e-007 -4.82417e-009 -0.252593 7.95657 6.60251 2.36162 -2.32252 -0.0388212 -10.6463 12.5575 31.4886 8.66577e-016 0 -9.93923e-017 143.638 -54.8407 158.668 -105.751 53.6274 -35.1948 5.42801 18.9416 -0.265742 6.41553 9.80635 10.7247 92.8042 -25.1843 84.8887 61.4065 56.6274 62.7913 -6.35102 18.6672 -0.00059278 
